<?xml version="1.0" standalone="no"?>
<!DOCTYPE svg PUBLIC "-//W3C//DTD SVG 1.1//EN" "http://www.w3.org/Graphics/SVG/1.1/DTD/svg11.dtd" >
<svg xmlns="http://www.w3.org/2000/svg">
<metadata></metadata>
<defs>
<font id="bpmoleculesregular" horiz-adv-x="768" >
<font-face units-per-em="2048" ascent="1638" descent="-410" />
<missing-glyph horiz-adv-x="1087" />
<glyph horiz-adv-x="0" />
<glyph unicode="&#xd;" />
<glyph unicode=" "  horiz-adv-x="1087" />
<glyph unicode="&#x09;" horiz-adv-x="1087" />
<glyph unicode="&#xa0;" horiz-adv-x="1087" />
<glyph unicode="A" horiz-adv-x="1972" d="M53 250q0 45 16.5 83t45 65.5t66.5 44t81 16.5q51 0 92 -23l308 336q-53 43 -54 117q0 61 44 106t108 45q43 0 84 -24l289 364q-20 27 -21 58q0 41 28.5 68.5t67.5 27.5q41 0 70 -27.5t29 -68.5q0 -20 -9.5 -40t-23.5 -34l104 -211q12 4 27 4q51 0 87 -36t36 -87 q0 -68 -53 -104l251 -570h13q74 0 127 -51t53 -127q0 -37 -14.5 -70.5t-39 -58t-57 -39t-69.5 -14.5t-70 14.5t-57.5 39t-38.5 58t-14 70.5q0 43 18 80t51 62l-196 587q-8 -2 -14.5 -3t-12.5 -1q-37 0 -66.5 18.5t-44.5 49.5l-383 -111q-8 -53 -51 -91t-100 -38 q-29 0 -55 10l-281 -366q47 -57 47 -129q0 -43 -16.5 -80t-45 -65.5t-66.5 -45t-81 -16.5t-81 16.5t-66.5 45t-45 65.5t-16.5 80zM133 342q0 -23 16.5 -39t38.5 -16q25 0 40.5 16t15.5 39t-15.5 39t-40.5 16q-23 0 -39 -16t-16 -39zM668 956q0 -18 11 -30.5t28 -12.5 q16 0 28.5 12.5t12.5 30.5q0 16 -12.5 27.5t-28.5 11.5q-39 0 -39 -39zM883 981q14 -23 24 -49l375 78l-2 24q0 33 16.5 60.5t40.5 44.5l-86 211q-10 -6 -20 -7.5t-23 -1.5q-29 0 -55 17zM1149 1481q0 -27 27 -27t26 27q1 24 -26 24t-27 -24zM1327 1087q0 -14 10.5 -23 t24.5 -9q12 0 21.5 9t9.5 23t-9.5 24.5t-21.5 10.5q-14 0 -24.5 -10t-10.5 -25zM1626 260q0 -20 14.5 -33.5t34.5 -13.5t33.5 13.5t13.5 33.5t-13.5 34.5t-33.5 14.5t-34.5 -14t-14.5 -35z" />
<glyph unicode="B" horiz-adv-x="1409" d="M53 213q0 39 15.5 74t40 62.5t58.5 44t71 18.5l147 755q-51 16 -84 62.5t-33 101.5q0 72 50.5 122t121.5 50q35 0 67 -13t55.5 -36.5t36.5 -54.5t13 -68v-8q0 -12 -2 -22.5t-4 -18.5l469 -221q16 41 53 66.5t80 25.5q61 0 104.5 -45t43.5 -102q0 -61 -43 -104.5 t-105 -43.5q-18 0 -35.5 6t-33.5 13l-355 -175q0 -8 1 -15t1 -13q0 -25 -8 -43l344 -387q16 8 41 8q39 0 66.5 -26.5t27.5 -67.5q0 -37 -27.5 -64.5t-66.5 -27.5q-29 0 -50 15t-34 40l-645 6q-25 -51 -74 -82t-106 -31q-84 0 -142.5 56.5t-58.5 142.5zM129 301 q0 -20 16.5 -36.5t36.5 -16.5q23 0 39.5 16.5t16.5 36.5q0 23 -16.5 38t-39.5 15q-20 0 -36.5 -15t-16.5 -38zM334 1407q0 -18 13 -31.5t32 -13.5q18 0 31.5 13.5t13.5 31.5q0 20 -13.5 33.5t-31.5 13.5t-31.5 -13.5t-13.5 -33.5zM344 391q47 -25 77 -71t32 -101l618 -51 q4 27 16 45l-360 356q-29 -16 -59 -16q-49 0 -85 36t-36 85t35.5 84t85.5 35q25 0 48 -11.5t40 -27.5l329 174q-23 35 -22 78l-2 1t-16.5 6t-47 16t-92 30.5t-150.5 50.5t-225 74q-16 -12 -37.5 -17.5t-43.5 -7.5zM594 725q0 -12 9 -22.5t22 -10.5q12 0 21 10.5t9 22.5 t-9 22.5t-21 10.5t-21.5 -10.5t-9.5 -22.5zM1106 201q0 -25 24 -25q25 0 25 25q0 24 -25 24t-24 -24zM1118 1069q0 -39 41 -39q37 0 37 39t-37 39q-41 0 -41 -39z" />
<glyph unicode="C" horiz-adv-x="1333" d="M53 754q0 59 41 100t101 41q49 0 86 -31l467 430q-6 18 -12.5 37t-6.5 39q0 33 13.5 63.5t36 52t52 35t62.5 13.5q66 0 114 -48t48 -116t-48.5 -115t-113.5 -47q-33 0 -72 17l-497 -414q12 -29 12 -57q0 -31 -14.5 -59.5t-38.5 -47.5l188 -397q18 6 43 6q43 0 73.5 -24.5 t43.5 -63.5l454 61q2 39 30 67t69 28q39 0 67.5 -29t28.5 -70q0 -39 -28.5 -68.5t-67.5 -29.5q-33 0 -58.5 19.5t-35.5 48.5l-459 -82q-8 -41 -41 -67t-76 -26q-49 0 -84 35t-35 84q0 53 41 88l-217 389q-16 -4 -24 -4q-59 0 -100.5 42t-41.5 100zM106 815q0 -14 10.5 -25.5 t28.5 -11.5q14 0 25.5 11.5t11.5 25.5q0 16 -11.5 27.5t-25.5 11.5q-39 0 -39 -39zM440 190q0 -14 9.5 -23t21.5 -9q33 0 33 32q0 12 -9.5 21.5t-23.5 9.5q-12 0 -21.5 -9t-9.5 -22zM791 1442q0 -18 13 -30.5t30 -12.5q18 0 31.5 12t13.5 31q0 18 -13.5 30.5t-31.5 12.5 q-16 0 -29.5 -12.5t-13.5 -30.5zM1122 268q0 -12 8.5 -18t16.5 -6q29 0 29 24q0 25 -29 25q-8 0 -16.5 -6t-8.5 -19z" />
<glyph unicode="D" horiz-adv-x="1208" d="M53 1343q0 68 50 117t118 49q66 0 113 -43t55 -104l414 -184q27 55 92 55q41 0 69.5 -28.5t28.5 -69.5q0 -31 -15 -55.5t-40 -37.5l86 -340h8q51 0 87 -35.5t36 -86.5t-36 -87t-87 -36q-59 0 -96 45l-461 -314q2 -10 3 -19t1 -19q0 -59 -42 -102.5t-101 -43.5t-103.5 43 t-44.5 103q0 59 41 100t97 45l-125 883q-61 8 -104.5 54t-43.5 111zM119 1417q0 -18 12 -31.5t31 -13.5q20 0 32.5 13.5t12.5 31.5t-12.5 31.5t-32.5 13.5q-18 0 -30.5 -13t-12.5 -32zM244 213q0 -16 12 -26.5t29 -10.5q14 0 25.5 10.5t11.5 26.5q0 18 -11.5 28.5 t-25.5 10.5q-16 0 -28.5 -10.5t-12.5 -28.5zM311 1202l70 -915q31 -8 59 -37l475 289q-8 16 -8 41q0 35 18.5 64.5t49.5 43.5l-76 344q-45 0 -75.5 30t-30.5 73q0 6 2 8l-418 137q-23 -51 -66 -78zM831 1178q0 -27 27 -27t27 27q0 26 -27 26t-27 -26zM956 633 q0 -12 9.5 -22.5t21.5 -10.5q14 0 24.5 10.5t10.5 22.5q0 14 -10.5 23.5t-24.5 9.5q-12 0 -21.5 -9.5t-9.5 -23.5z" />
<glyph unicode="E" horiz-adv-x="1607" d="M53 1346q0 35 13.5 65.5t37 54t53 37t64.5 13.5q68 0 116 -46.5t52 -111.5l586 -174q8 20 27.5 33.5t46.5 13.5q31 0 54 -23.5t23 -54.5q0 -33 -23.5 -56.5t-53.5 -23.5q-35 0 -57.5 23.5t-22.5 56.5q-55 12 -113.5 23.5t-128.5 26t-156 31.5t-198 42q-14 -35 -47 -62 l209 -915q23 0 45 -6l118 399q-36 24 -36 73q0 44 29.5 74.5t70.5 30.5t71.5 -30.5t30.5 -71.5t-30.5 -70.5t-71.5 -29.5h-8l-142 -392q25 -16 47 -49l654 176q-2 10 -3 18.5t-1 18.5q0 51 35.5 87t87.5 36q51 0 86.5 -35.5t35.5 -87.5q0 -49 -35.5 -86t-86.5 -37 q-55 0 -95 43l-659 -206q0 -59 -42 -101.5t-104 -42.5q-59 0 -102 42t-43 104q0 45 26.5 81.5t67.5 53.5l-262 887q-33 0 -62.5 13t-53 36.5t-37 53.5t-13.5 65zM117 1419q0 -18 14 -31.5t33 -13.5q18 0 30.5 13.5t12.5 31.5t-12.5 31.5t-30.5 13.5t-32.5 -13t-14.5 -32z M442 219q0 -39 39 -39t39 39q0 37 -39 37t-39 -37zM698 813q0 -27 29 -27q27 0 27 27q0 29 -27 29q-29 0 -29 -29zM999 1188q0 -18 21 -19q20 0 20 19q0 20 -20 20t-21 -20zM1356 496q0 -33 33 -33q12 0 22 9t10 24q0 12 -10 21t-22 9q-14 0 -23.5 -9t-9.5 -21z" />
<glyph unicode="F" horiz-adv-x="1361" d="M53 1368q0 63 44 107.5t108 44.5q53 0 95 -35t52 -86l799 -56q8 25 29.5 40.5t48.5 15.5q35 0 57.5 -24.5t22.5 -55.5q0 -37 -22.5 -59.5t-57.5 -22.5q-31 0 -52.5 18.5t-29.5 44.5h-799q-16 -35 -49 -49l109 -356q6 4 20 4q51 0 85 -23.5t46 -60.5l416 90 q8 35 35.5 58.5t66.5 23.5q43 0 74 -30.5t31 -73.5t-31 -74t-74 -31q-33 0 -58.5 17.5t-37.5 44.5l-414 -68q0 -35 -16 -63.5t-43 -44.5l147 -295q10 2 19.5 3t19.5 1q37 0 69 -13.5t55.5 -37t36.5 -55t13 -66.5q0 -37 -13 -69t-36.5 -55.5t-55.5 -37.5t-69 -14t-68.5 14 t-55 37.5t-37 55.5t-13.5 69q0 35 14.5 66.5t38.5 56.5l-112 323q-12 -4 -21 -4q-53 0 -91 38t-38 91q0 31 14.5 57.5t36.5 42.5l-143 347l-14 -2q-61 0 -106.5 45t-45.5 106zM111 1436q0 -41 41 -41q39 0 38 41q1 39 -38 39q-41 0 -41 -39zM360 827q0 -14 10.5 -24 t24.5 -10q12 0 22.5 10t10.5 24t-10.5 24.5t-22.5 10.5q-14 0 -24.5 -10t-10.5 -25zM588 276q0 -20 12 -33.5t33 -13.5q20 0 33.5 13.5t13.5 33.5q0 18 -13.5 33t-33.5 15t-32.5 -14.5t-12.5 -33.5zM1040 901q27 0 27 27q0 28 -27 28q-28 0 -28 -26q0 -29 28 -29zM1178 1354 q0 -23 22 -23q20 0 21 23q-1 20 -21 20q-23 0 -22 -20z" />
<glyph unicode="G" horiz-adv-x="1347" d="M53 989q0 55 40 94t95 39t97 -41l493 275q0 6 -1 12t-1 12q0 66 45 111t111 45q61 0 107 -45t46 -111q0 -63 -46 -108t-107 -45q-57 0 -96 33l-523 -228q8 -14 9 -43q0 -61 -46 -100l158 -639q41 0 67.5 -18.5t41.5 -45.5l567 33q0 4 3 21.5t9 27.5l-311 297 q-16 -12 -39 -12q-31 0 -51.5 20.5t-20.5 51.5t20.5 52t51.5 21t52.5 -21.5t21.5 -51.5q0 -16 -10 -33l331 -283q8 2 16.5 4t18.5 2q37 0 64.5 -26.5t27.5 -65.5t-27.5 -65.5t-64.5 -26.5q-53 0 -78 41l-573 -68q-12 -35 -42 -58t-69 -23q-47 0 -78.5 33.5t-31.5 78.5 q0 31 14 57.5t41 40.5l-190 623q-59 0 -100.5 39t-41.5 94zM106 1049q0 -16 10.5 -26.5t22.5 -10.5q37 0 37 37q0 14 -10.5 24t-26.5 10q-12 0 -22.5 -10t-10.5 -24zM371 186q0 -12 9 -21t21 -9t20.5 9t8.5 21q0 29 -29 29q-12 0 -21 -8t-9 -21zM729 657q0 -20 19 -20 q18 0 18 20q0 19 -18 19t-19 -19zM834 1448q0 -16 12 -28.5t31 -12.5q16 0 28.5 12.5t12.5 28.5q0 18 -12.5 30.5t-28.5 12.5q-18 0 -30.5 -12.5t-12.5 -30.5zM1152 246q7 -8 17 -8t17.5 8t7.5 16q0 27 -25 27q-24 0 -24 -25q0 -10 7 -18z" />
<glyph unicode="H" horiz-adv-x="1540" d="M53 870q0 59 41 99.5t99 40.5q10 0 19 -1t19 -3l189 294q-29 14 -47.5 43t-18.5 62q0 49 34 84t83 35t83 -35t34 -84q0 -47 -34 -82t-83 -35l-16 2l-168 -317q29 -31 39 -64l968 -39q10 59 64 76l-133 416q-35 0 -57.5 21.5t-22.5 52.5t22.5 52t53.5 21t52 -21.5 t21 -51.5q0 -41 -37 -64l150 -422q35 -6 56.5 -31.5t21.5 -60.5q0 -39 -25.5 -65.5t-62.5 -30.5l-47 -375q35 -16 55 -49t20 -74q0 -57 -39.5 -97t-97.5 -40q-57 0 -98 40t-41 97t39 96t94 43l86 361q-57 14 -72 72h-970q-14 -59 -70 -88l143 -424h11q66 0 111.5 -46.5 t45.5 -113.5q0 -68 -46 -114t-111 -46q-68 0 -114 46t-46 114q0 88 74 135l-105 436q-8 -2 -15 -2h-11q-57 0 -98.5 41t-41.5 96zM106 932q0 -14 10.5 -25.5t26.5 -11.5t27.5 11.5t11.5 25.5q0 37 -39 37q-37 0 -37 -37zM311 233q0 -16 12.5 -29.5t28.5 -13.5t28.5 13.5 t12.5 29.5t-12.5 28.5t-28.5 12.5t-28.5 -12t-12.5 -29zM397 1458q0 -12 9.5 -21.5t21.5 -9.5q14 0 23.5 9.5t9.5 21.5t-9.5 21.5t-23.5 9.5q-12 0 -21.5 -9.5t-9.5 -21.5zM1174 1470q0 -23 20 -22q20 0 20 22q0 19 -20 19t-20 -19zM1202 326q0 -14 10.5 -25.5t26.5 -11.5 t26.5 11t10.5 26q0 36 -37 36t-37 -36zM1331 899q0 -25 25 -25t24 25q1 27 -24 27t-25 -27z" />
<glyph unicode="I" horiz-adv-x="731" d="M53 1065q0 68 49.5 117t116.5 49q68 0 117 -49t49 -117q0 -41 -17.5 -74t-43.5 -53l239 -723q4 0 8 1t9 1q39 0 68.5 -29.5t29.5 -68.5q0 -41 -30 -70t-68 -29q-41 0 -70 29t-29 70q0 25 11.5 45t27.5 35l-297 702q-70 0 -120 47t-50 117zM117 1139q0 -18 13 -31.5 t32 -13.5q16 0 29.5 13t13.5 32q0 16 -13.5 29.5t-29.5 13.5q-18 0 -31.5 -13.5t-13.5 -29.5zM123 1456q0 31 23.5 54.5t54.5 23.5t53 -23.5t22 -54.5q0 -33 -22.5 -54.5t-52.5 -21.5q-31 0 -54.5 21.5t-23.5 54.5zM152 1491q0 -8 6 -15.5t14 -7.5q10 0 16.5 7.5t6.5 15.5 q0 18 -23 18q-20 0 -20 -18zM520 137q0 -22 27 -22h2q8 0 15 8t7 20q-2 8 -9 15.5t-19 7.5q-23 -4 -23 -29z" />
<glyph unicode="J" horiz-adv-x="1140" d="M53 -70q0 49 35 83t82 34q45 0 78 -28.5t39 -71.5l362 -15q12 45 49 69t78 24l193 815q-18 10 -30.5 28.5t-12.5 40.5q0 35 23.5 58.5t56.5 23.5q35 0 57 -23.5t22 -58.5q0 -33 -21.5 -55.5t-53.5 -24.5l-160 -825q27 -20 44 -49t17 -64q0 -57 -40 -96t-95 -39 q-51 0 -89 32t-44 81l-356 41q-8 -43 -41 -69.5t-76 -26.5q-47 0 -82 33.5t-35 82.5zM98 -18q0 -12 9.5 -21.5t23.5 -9.5q12 0 21.5 9t9.5 22q0 14 -9.5 22t-21.5 8q-33 0 -33 -30zM692 -51q0 -14 10.5 -24.5t26.5 -10.5q14 0 24.5 10t10.5 25q0 16 -10.5 26.5t-24.5 10.5 q-37 0 -37 -37zM889 1204q0 27 18 45.5t43 18.5q27 0 45.5 -18.5t18.5 -45.5t-18.5 -45t-45.5 -18q-25 0 -43 18.5t-18 44.5zM913 1233q0 -18 17 -19q16 0 16 19q0 16 -16 16t-17 -16zM956 944q0 -6 6.5 -12t14.5 -6q23 0 22 18q1 25 -22 25q-20 0 -21 -25z" />
<glyph unicode="K" horiz-adv-x="1396" d="M53 92q0 31 22.5 52.5t53.5 21.5h8l119 483q-31 16 -49.5 48t-18.5 69q0 49 27 85t70 48l-29 365q-41 0 -69.5 27.5t-28.5 68.5q0 39 27.5 66.5t68.5 27.5q39 0 66.5 -27.5t27.5 -66.5q0 -61 -55 -88l55 -369q47 -10 74 -39l612 457q-10 27 -10 53q0 68 47 114t113 46 q68 0 113.5 -46t45.5 -114q0 -66 -46 -113t-113 -47q-47 0 -88 29l-641 -428q10 -25 10 -49q0 -35 -21 -68l293 -356q27 18 64 18q49 0 83 -33.5t34 -82.5t-34 -83t-83 -34t-83 34t-34 83q0 43 27 75l-320 328q-29 -18 -65 -18l-162 -471q39 -20 39 -66q0 -31 -21.5 -52.5 t-52.5 -21.5t-53.5 21.5t-22.5 52.5zM82 125q0 -8 7 -14.5t13 -6.5q18 0 19 21q-1 20 -19 20q-6 0 -13 -6t-7 -14zM219 1376q27 0 27 25q0 26 -27 26q-24 0 -24 -24q0 -27 24 -27zM240 827q0 -14 11 -25t25 -11q16 0 26.5 11t10.5 25q0 37 -37 37q-14 0 -25 -10t-11 -27z M729 295q0 -12 9.5 -22.5t21.5 -10.5t21.5 10.5t9.5 22.5t-9.5 21.5t-21.5 9.5t-21.5 -9.5t-9.5 -21.5zM1085 1446q0 -18 12.5 -30.5t30.5 -12.5q16 0 29.5 12t13.5 31q0 16 -13.5 28.5t-29.5 12.5q-18 0 -30.5 -12.5t-12.5 -28.5z" />
<glyph unicode="L" horiz-adv-x="1349" d="M53 1415q0 39 29 67.5t70 28.5t69.5 -28.5t28.5 -67.5q0 -29 -15.5 -51.5t-37.5 -34.5l231 -979q55 0 96 -30.5t58 -79.5l436 16q6 51 46 86t91 35q59 0 100 -41t41 -98q0 -59 -41 -100.5t-100 -41.5q-51 0 -89 33t-48 82l-428 -47q-8 -59 -54.5 -98t-107.5 -39 q-68 0 -114 47t-46 114q0 43 19.5 78t52.5 58l-193 995q-39 0 -66.5 27.5t-27.5 68.5zM186 1432q27 0 27 26q0 27 -27 27q-26 0 -26 -25q0 -29 26 -28zM442 260q0 -18 13.5 -30.5t31.5 -12.5q16 0 29.5 12.5t13.5 30.5q0 16 -13.5 29.5t-29.5 13.5q-18 0 -31.5 -13.5 t-13.5 -29.5zM1167 299q0 -37 39 -37q14 0 25.5 10.5t11.5 26.5t-11.5 26.5t-25.5 10.5q-39 0 -39 -37z" />
<glyph unicode="M" horiz-adv-x="1976" d="M53 225q0 47 17.5 88t48.5 71t72 47.5t88 17.5q14 0 24 -3l359 695q-45 27 -73 71.5t-28 100.5q0 39 15.5 73.5t41 60.5t60.5 41t76 15q39 0 74.5 -15t61 -41t41 -60.5t15.5 -73.5q0 -59 -33 -111l232 -348q10 2 19.5 3t19.5 1q27 0 61 -12l324 356q-35 41 -35 92 q0 53 40 93t93 40q55 0 95 -38.5t40 -94.5q0 -37 -15 -64.5t-42 -45.5l80 -781q41 0 69.5 -30.5t28.5 -71.5q0 -45 -29.5 -73.5t-72.5 -28.5q-45 0 -75 28.5t-30 73.5q0 35 18.5 60.5t49.5 37.5l-127 760q-10 2 -18.5 4t-16.5 4l-307 -376q33 -39 33 -95q0 -70 -48.5 -117 t-115.5 -47q-66 0 -114 47.5t-48 116.5q0 57 37 105l-207 346q-23 -12 -47.5 -20.5t-50.5 -8.5q-12 0 -15 2l-315 -727q35 -31 56.5 -75t21.5 -93q0 -47 -17.5 -87t-48 -70.5t-71.5 -48t-86 -17.5q-47 0 -88 17.5t-72 48t-48.5 70.5t-17.5 87zM139 324q0 -25 17.5 -43.5 t44.5 -18.5q25 0 41 18.5t16 43.5t-16 42t-41 17q-27 0 -44.5 -17.5t-17.5 -41.5zM635 1397q0 -51 51 -51q20 0 35.5 14t15.5 37q0 20 -15.5 35.5t-35.5 15.5q-23 0 -37 -15.5t-14 -35.5zM1083 766q0 -16 13.5 -29.5t29.5 -13.5t29.5 12.5t13.5 30.5t-12.5 31.5t-28.5 13.5 q-18 0 -31.5 -13.5t-13.5 -31.5zM1585 1352q0 -14 10.5 -24.5t24.5 -10.5q16 0 26.5 10t10.5 25q0 34 -37 34q-14 0 -24.5 -9t-10.5 -25zM1755 348q0 -12 8.5 -21.5t20.5 -9.5t19 9.5t7 23.5q0 23 -26 23q-29 0 -29 -25z" />
<glyph unicode="N" horiz-adv-x="1660" d="M53 188q0 70 47 120t115 54l317 889q-33 23 -53 56.5t-20 74.5q0 31 12 57.5t32.5 48t48.5 34t58 12.5q63 0 106.5 -46t43.5 -106q0 -63 -47 -110l370 -600q8 2 16.5 3t18.5 1h12l304 563q-35 31 -35 76t30.5 74.5t73.5 29.5t74 -29.5t31 -74.5q0 -43 -31 -74t-74 -31 q-20 0 -37 9l-276 -566q25 -16 40 -43.5t15 -60.5q0 -53 -37 -90t-90 -37t-90 37t-37 90q0 43 21 69l-342 627q-27 -14 -60 -14q-8 0 -13 1t-11 1l-275 -893q41 -23 65.5 -62.5t24.5 -89.5q0 -37 -14 -67.5t-37.5 -54t-55.5 -37t-67 -13.5q-72 0 -123 50.5t-51 121.5z M121 266q0 -20 12 -33.5t33 -13.5q18 0 32.5 13.5t14.5 33.5t-14.5 32.5t-32.5 12.5q-45 0 -45 -45zM516 1448q0 -16 11.5 -28.5t29.5 -12.5q16 0 27.5 12.5t11.5 28.5q0 41 -39 41q-41 0 -41 -41zM1038 606q0 -16 10.5 -25.5t24.5 -9.5q12 0 23.5 9.5t11.5 25.5 q0 12 -11.5 22.5t-23.5 10.5q-14 0 -24.5 -10.5t-10.5 -22.5zM1438 1362q0 -29 28 -29q29 0 29 29q0 27 -29 27t-28 -27z" />
<glyph unicode="O" horiz-adv-x="1552" d="M53 1255q0 68 49.5 116t116.5 48q53 0 95 -30.5t59 -77.5h714q8 35 46 65.5t92 30.5q59 0 99 -42t40 -99q0 -39 -19.5 -71t-50.5 -48l92 -916q45 0 78 -33.5t33 -80.5t-33.5 -80t-81.5 -33q-39 0 -67.5 21.5t-38.5 54.5l-666 61q-23 -49 -68.5 -80.5t-105.5 -31.5 q-39 0 -72.5 15t-59 41t-41 60.5t-15.5 73.5q0 94 74 150l-109 721q-68 4 -114 51t-46 114zM117 1325q0 -18 13 -30.5t32 -12.5q18 0 31.5 12.5t13.5 30.5t-13.5 31.5t-31.5 13.5t-31.5 -13.5t-13.5 -31.5zM281 1102l159 -692q74 -2 126 -49.5t61 -116.5l643 -109 q12 59 67 86l-137 907q-41 8 -72.5 38t-40.5 73l-708 -29q-12 -39 -38 -67.5t-60 -40.5zM319 303q0 -23 15.5 -37t36.5 -14q20 0 35.5 14.5t15.5 36.5q0 20 -15.5 35.5t-35.5 15.5t-36 -15t-16 -36zM1139 1327q0 -14 10 -25.5t27 -11.5q16 0 27 11.5t11 25.5q1 37 -38 37 q-37 0 -37 -37zM1313 166q0 -12 9 -20.5t21 -8.5q29 0 29 29q0 31 -29 31q-12 0 -21 -8.5t-9 -22.5z" />
<glyph unicode="P" horiz-adv-x="1282" d="M53 141q0 59 37 100.5t90 51.5l154 952q-35 16 -56.5 48t-21.5 73q0 55 37 93t94 38q53 0 92 -38t39 -91l494 -96q10 35 38.5 56.5t65.5 21.5q47 0 80 -32t33 -79q0 -45 -33 -78t-80 -33q-37 0 -63 21l-414 -242v-8q0 -39 -25.5 -64.5t-64.5 -25.5t-65.5 25.5t-26.5 64.5 t26.5 64.5t65.5 25.5q27 0 46 -12t32 -33l387 252l-8 31l-508 71q-14 -27 -41 -43t-60 -20l-114 -961q35 -20 55 -55t20 -78q0 -63 -44 -107t-107 -44q-61 0 -107.5 45t-46.5 106zM113 209q0 -16 12 -27.5t29 -11.5q16 0 28.5 11.5t12.5 27.5t-12.5 28.5t-28.5 12.5 t-28.5 -12.5t-12.5 -28.5zM305 1423q0 -12 10.5 -23t24.5 -11t24.5 11t10.5 23q0 16 -10.5 26.5t-24.5 10.5t-24.5 -10t-10.5 -27zM516 913q25 0 25 25t-25 25q-24 0 -24 -23q0 -27 24 -27zM1049 1288q0 -12 9 -21.5t21 -9.5t20.5 9.5t8.5 21.5t-8.5 21.5t-20.5 9.5 t-21 -9.5t-9 -21.5z" />
<glyph unicode="Q" horiz-adv-x="1417" d="M53 125q0 57 40 98t100 43l167 912q-37 20 -60.5 57t-23.5 84q0 33 13.5 62.5t36 51t52 35t62.5 13.5q63 0 105.5 -39t54.5 -99l571 -202q6 35 32 57.5t65 22.5t67.5 -31t28.5 -68q0 -39 -21.5 -63.5t-54.5 -32.5l-293 -674q16 -10 26.5 -25.5t10.5 -39.5 q0 -27 -22.5 -51.5t-53.5 -24.5t-52 22.5t-21 53.5t19.5 52t47.5 23l264 680q-29 18 -36 43l-592 166q-16 -37 -50 -62.5t-77 -29.5l-207 -905q72 -35 84 -115h725q12 55 40.5 78t74.5 23q47 0 82.5 -35t35.5 -84t-35.5 -84t-82.5 -35t-79 28.5t-38 71.5l-742 -43 q-16 -33 -48.5 -54t-73.5 -21q-57 0 -99.5 42t-42.5 99zM121 176q0 -31 31 -31q33 0 32 31q0 12 -9 21.5t-23 9.5q-12 0 -21.5 -9.5t-9.5 -21.5zM367 1401q0 -35 36 -35q37 0 37 35q0 39 -37 39q-36 0 -36 -39zM905 305q0 -31 31 -31q33 0 33 31q0 12 -9.5 21.5t-23.5 9.5 t-22.5 -9.5t-8.5 -21.5zM1098 172q0 -31 30 -31q33 0 33 31q0 33 -33 33q-12 0 -21 -9.5t-9 -23.5zM1210 1161q0 -31 31 -31q33 0 33 31q0 33 -33 33q-31 0 -31 -33z" />
<glyph unicode="R" horiz-adv-x="1058" d="M53 123q0 47 28 82t71 47l34 1018q-41 8 -65.5 39.5t-24.5 74.5q0 49 34 83t83 34q45 0 79 -32.5t38 -77.5l483 -150q10 31 35.5 49.5t58.5 18.5q39 0 69 -29t30 -70t-30 -70.5t-69 -29.5t-65 25l-365 -181q4 -16 4 -24t-1 -13.5t-3 -11.5l328 -549q12 4 22 4 q27 0 44.5 -18t17.5 -43q0 -27 -17.5 -45t-44.5 -18q-25 0 -43 18t-18 45q0 31 20 45l-352 512q-16 -8 -35 -8q-33 0 -56.5 23.5t-23.5 58.5q0 33 24 57.5t56 24.5q20 0 36 -9.5t28 -21.5l350 197q-4 20 -4 32q-4 2 -19.5 6.5t-41.5 10.5q-47 10 -148.5 32.5t-288.5 65.5 q-27 -47 -86 -57l6 -1018q41 -12 67 -47t26 -80q0 -57 -40 -96t-96 -39q-55 0 -95 39t-40 96zM106 182q0 -14 10.5 -25.5t24.5 -11.5q16 0 25.5 11.5t9.5 25.5t-9.5 25.5t-25.5 11.5q-14 0 -24.5 -11t-10.5 -26zM139 1436q0 -12 9.5 -21.5t21.5 -9.5t21.5 9t9.5 22 q0 12 -9.5 21t-21.5 9t-21.5 -9t-9.5 -21zM350 965q0 -20 23 -21q20 0 20 21q0 22 -20 22q-23 0 -23 -22zM791 326q0 -16 14 -17q16 0 16 17q0 16 -16 16q-14 0 -14 -16zM868 1227h2q29 0 29 26q0 27 -29 27q-24 0 -24 -25q0 -28 22 -28z" />
<glyph unicode="S" horiz-adv-x="1173" d="M53 57q0 33 23.5 55.5t54.5 22.5q33 0 55 -22l508 340q-2 6 -4 15t-2 15q0 25 12 47l-456 494q-25 -12 -45 -12q-47 0 -80 33.5t-33 78.5q0 47 33 80t80 33q35 0 63.5 -20.5t40.5 -51.5l559 197q2 51 39 87t90 36t91 -38t38 -91t-38 -91t-91 -38q-61 0 -98 47l-584 -158 q-2 -14 -6 -25.5t-8 -21.5l442 -502q20 12 47 13q39 0 67 -28t28 -69q0 -39 -28 -66.5t-67 -27.5q-31 0 -57 19l-526 -318q8 -14 8 -33q0 -33 -22.5 -55t-55.5 -22q-31 0 -54.5 22.5t-23.5 54.5zM84 92q0 -20 18 -20q23 0 23 20q0 21 -23 21q-18 0 -18 -21zM129 1174 q0 -29 29 -29q12 0 21 8t9 21q0 12 -9 21t-21 9t-20.5 -9t-8.5 -21zM725 526q0 -26 23 -26h2q27 0 26 26q1 25 -26 25q-25 0 -25 -25zM911 1413q0 -14 10.5 -23.5t24.5 -9.5t24.5 9.5t10.5 23.5t-10.5 24.5t-24.5 10.5t-24.5 -10.5t-10.5 -24.5z" />
<glyph unicode="T" horiz-adv-x="1673" d="M53 999q0 57 42.5 99.5t101.5 42.5q35 0 65.5 -16.5t50.5 -43.5l441 115q0 20 9 45t24.5 44.5t38 32.5t51.5 13q39 0 68.5 -20.5t43.5 -50.5l422 110q0 68 27.5 94.5t77.5 26.5q43 0 73.5 -30.5t30.5 -74.5q0 -45 -30.5 -74.5t-73.5 -29.5q-55 0 -86 43l-431 -133 q-2 -29 -18 -55.5t-43 -40.5l-31 -946q63 -16 64 -84q0 -33 -25.5 -59.5t-60.5 -26.5t-60.5 26.5t-25.5 59.5t19.5 54t47.5 30l-30 935q-12 4 -28.5 11.5t-33.5 29.5l-434 -139q-4 -55 -45 -93t-98 -38q-59 0 -101.5 42t-42.5 101zM109 1061q0 -16 11 -26.5t25 -10.5 q39 0 39 37q0 39 -39 39q-14 0 -25 -10.5t-11 -28.5zM803 1262q0 -14 9 -23.5t22 -9.5q33 0 32 33q1 32 -32 32q-12 0 -21.5 -9t-9.5 -23zM831 102q0 -8 7.5 -15t15.5 -7q10 0 16.5 7t6.5 15q0 25 -23 25q-8 0 -15.5 -7t-7.5 -18zM1448 1432q0 -12 9 -19.5t20 -7.5 q29 0 28 27q1 28 -28 28q-10 0 -19.5 -8t-9.5 -20z" />
<glyph unicode="U" horiz-adv-x="1531" d="M53 1307q0 70 49 118t117 48t117 -48.5t49 -117.5q0 -49 -26.5 -87t-65.5 -61l168 -854q43 -8 74.5 -37.5t42.5 -70.5l296 -91q8 33 33 56.5t62 32.5l237 1065q-27 10 -44 34.5t-17 55.5q0 43 28.5 71.5t71.5 28.5q39 0 68.5 -28.5t29.5 -71.5t-30 -68l92 -694 q31 0 52.5 -22.5t21.5 -53.5t-22.5 -54.5t-55.5 -23.5q-31 0 -53.5 25.5t-22.5 52.5t11.5 42t29.5 26l-104 673q-20 -102 -41 -206.5t-44.5 -230.5t-52 -281.5t-65.5 -358.5q25 -18 39 -39.5t14 -60.5q0 -23 -10 -44.5t-27.5 -39t-39 -28.5t-44.5 -11q-47 0 -78.5 28.5 t-40.5 69.5l-303 53q-16 -37 -48 -60.5t-81 -23.5q-27 0 -52.5 12.5t-45.5 32t-33.5 45t-13.5 54.5q0 53 28.5 88t73.5 47l-211 848q-57 10 -95 56t-38 104zM117 1380q0 -18 13 -30.5t30 -12.5q18 0 31.5 12.5t13.5 30.5t-13.5 30.5t-31.5 12.5q-16 0 -29.5 -12t-13.5 -31z M350 225q0 -37 39 -37q14 0 26.5 10.5t12.5 26.5t-12.5 27.5t-26.5 11.5q-39 0 -39 -39zM915 129q0 -14 10.5 -23.5t22.5 -9.5t22.5 9.5t10.5 23.5q0 12 -10.5 22.5t-22.5 10.5t-22.5 -10.5t-10.5 -22.5zM1184 1395q0 -27 24 -27q27 0 27 27q0 26 -27 26q-25 0 -24 -26z M1354 545q0 -18 20 -19q20 0 21 19q-1 20 -21 20t-20 -20z" />
<glyph unicode="V" horiz-adv-x="1220" d="M53 1360q0 29 12.5 55.5t32 46t46 31.5t57.5 12t57.5 -12t46 -31.5t31.5 -46t12 -55.5q0 -45 -24 -84l594 -1049q8 4 14 6.5t14 4.5l88 813q-35 10 -59.5 38.5t-24.5 67.5q0 45 32 76t77 31t75.5 -31t30.5 -76q0 -43 -27.5 -73.5t-70.5 -34.5l-49 -824q31 -16 52.5 -47 t21.5 -69q0 -53 -37 -90t-92 -37q-53 0 -90 36.5t-37 90.5q0 63 47 98l-641 1010q-10 -2 -20.5 -3.5t-20.5 -1.5q-59 0 -103.5 43t-44.5 105zM147 1384q16 0 28.5 11.5t12.5 27.5q0 18 -12.5 28.5t-28.5 10.5q-38 0 -38 -37q0 -41 38 -41zM885 166q0 -14 10 -23.5t25 -9.5 q12 0 22 9.5t10 23.5t-10 24.5t-22 10.5q-14 0 -24.5 -10.5t-10.5 -24.5zM991 1204q0 -28 27 -28h2q29 0 29 28q0 29 -29 29t-29 -29z" />
<glyph unicode="W" horiz-adv-x="1939" d="M53 854q0 61 23.5 116.5t65.5 96.5t96.5 64.5t115.5 23.5t115.5 -23.5t96.5 -64.5t65.5 -96.5t23.5 -116.5q0 -80 -37 -143l410 -369q35 39 84 51l-168 643q-31 0 -58.5 13.5t-49 36t-33.5 52t-12 60.5q0 66 48 113t115 47q66 0 114 -47t48 -113l559 -321q6 12 13.5 18 l17.5 14l-283 410q-8 -2 -18 -2q-41 0 -66.5 26.5t-25.5 65.5t25.5 65.5t66.5 26.5q37 0 64.5 -26.5t27.5 -65.5q0 -25 -18 -53l252 -434q14 8 41 8q47 0 79.5 -34t32.5 -81q0 -49 -32.5 -83t-79.5 -34q-49 0 -82 34t-33 83v14.5t2 16.5l-567 270q-23 -41 -66 -63l137 -650 h13q43 0 80.5 -16t65.5 -44t44 -65.5t16 -80.5t-16 -81t-44 -67t-65.5 -45t-80.5 -16t-81 16t-66 45t-44 67t-16 81q0 47 18 88l-467 321q-74 -51 -166 -51q-61 0 -115.5 23.5t-96.5 63.5t-65.5 94.5t-23.5 117.5zM121 893q0 -37 24.5 -62.5t61.5 -25.5t61.5 25.5t24.5 62.5 q0 35 -24.5 59.5t-61.5 24.5t-61.5 -24.5t-24.5 -59.5zM836 1239q0 -18 12 -30.5t29 -12.5q18 0 30.5 12.5t12.5 30.5q0 16 -12.5 27.5t-30.5 11.5q-16 0 -28.5 -11.5t-12.5 -27.5zM1018 182q0 -20 14.5 -34.5t34.5 -14.5q23 0 37 14.5t14 34.5t-14 34.5t-37 14.5 q-20 0 -34.5 -14t-14.5 -35zM1337 1427q0 -18 19 -18q16 0 16 18q0 17 -16 17q-18 0 -19 -17zM1694 784q0 -12 9 -21t21 -9t21.5 9t9.5 21t-9.5 21.5t-21.5 9.5t-21 -9t-9 -22z" />
<glyph unicode="X" horiz-adv-x="2033" d="M53 211q0 47 18.5 89t49.5 72.5t73 49t89 18.5q35 0 67.5 -11t61.5 -30l530 359q-27 39 -27 92q0 92 78 141l-112 187q-8 -2 -21 -2q-45 0 -75.5 31.5t-30.5 74.5t30.5 75t75.5 32t76 -32t31 -75q0 -51 -39 -82l92 -196q14 8 29.5 10t31.5 2q41 0 75 -17.5t56 -46.5 l504 365q-10 25 -10 47q0 57 40 97t97 40t97 -40t40 -97t-39.5 -97t-97.5 -40q-47 0 -84 30l-522 -344q12 -31 12 -63q0 -45 -20.5 -81t-52.5 -58l151 -226q31 14 72 15q39 0 74.5 -15.5t63.5 -42t43 -63.5t15 -78t-15 -77t-43 -62.5t-63.5 -42t-74.5 -15.5 q-86 0 -142.5 57.5t-56.5 139.5q0 92 64 145l-123 246q-31 -10 -60 -10q-68 0 -112 45l-498 -387q39 -57 39 -129q0 -47 -18.5 -88t-49 -72t-71.5 -49t-88 -18t-89 18t-73 49t-49.5 72t-18.5 88zM139 311q0 -25 18.5 -43t43.5 -18q27 0 44 18.5t17 42.5q0 25 -17 43.5 t-44 18.5q-25 0 -43.5 -18.5t-18.5 -43.5zM823 1300q29 0 29 29t-29 29q-28 0 -28 -27q0 -31 28 -31zM979 924q0 -20 13.5 -32.5t31.5 -12.5t30.5 12t12.5 33q0 16 -12.5 30.5t-30.5 14.5t-31.5 -14.5t-13.5 -30.5zM1276 389q0 -23 15.5 -38t35.5 -15q23 0 38 15.5t15 37.5 q0 20 -15 35.5t-38 15.5q-20 0 -35.5 -15t-15.5 -36zM1759 1423q0 -14 10.5 -25.5t26.5 -11.5q14 0 25.5 11.5t11.5 25.5q0 16 -11.5 26.5t-25.5 10.5q-37 0 -37 -37z" />
<glyph unicode="Y" horiz-adv-x="989" d="M53 1356q0 59 42.5 101t101.5 42t101 -42t42 -101q0 -37 -14 -64l252 -348q27 18 63 19q25 0 43 -9l143 242q-25 20 -24 53q0 27 18.5 46.5t46.5 19.5q27 0 47.5 -19.5t20.5 -46.5q0 -29 -20.5 -47t-47.5 -18h-12l-131 -256q41 -37 41 -90q0 -47 -30.5 -81t-76.5 -40 l-137 -527q31 -10 50.5 -36.5t19.5 -59.5q0 -45 -31 -75.5t-76 -30.5q-43 0 -73.5 30.5t-30.5 75.5q0 43 30.5 73t73.5 30h13l102 524q-37 12 -60.5 44t-23.5 73q0 47 27 75l-287 314q-25 -12 -59 -13q-59 0 -101.5 42t-42.5 100zM109 1419q0 -39 38 -39q37 0 37 39 q0 37 -37 37q-39 0 -38 -37zM422 139q0 -28 25 -28h2q29 0 28 28q1 29 -28 29q-27 0 -27 -29zM563 893q0 -14 10.5 -24.5t24.5 -10.5q12 0 22.5 10.5t10.5 24.5q0 12 -10.5 22.5t-22.5 10.5q-14 0 -24.5 -10.5t-10.5 -22.5zM827 1278q0 -18 19 -18q6 0 12 5t6 13t-6 12 t-12 4q-18 0 -19 -16z" />
<glyph unicode="Z" horiz-adv-x="1298" d="M53 1325q0 70 50 119t118 49q70 0 119 -49t49 -119l567 -170q12 47 52.5 78t89.5 31q59 0 103 -42t44 -102q0 -27 -12 -53.5t-32.5 -48t-46.5 -35.5t-52 -14q-18 0 -39 10l-657 -805l18 -37l430 88q-2 10 -2 27q0 43 29.5 72.5t68.5 29.5q43 0 73 -29.5t30 -72.5 q0 -41 -30 -70.5t-73 -29.5q-25 0 -46 12t-36 33l-442 -121q-10 -41 -43 -70t-78 -29q-49 0 -86 37t-37 88t37 87t86 36q37 0 68 -18l622 811q-37 35 -41 92l-587 131q-20 -39 -59.5 -61.5t-86.5 -22.5q-68 0 -118 48t-50 120zM117 1399q0 -18 14 -31.5t31 -13.5 q18 0 31.5 13t13.5 32q0 18 -13.5 31.5t-31.5 13.5q-16 0 -30.5 -13.5t-14.5 -31.5zM229 156q0 -12 10.5 -22.5t22.5 -10.5q14 0 23.5 10t9.5 23q0 32 -33 32q-12 0 -22.5 -9t-10.5 -23zM915 270q29 0 29 27t-29 27q-26 0 -26 -25q0 -29 26 -29zM1008 1184q0 -39 41 -39 q37 0 36 39q1 39 -36 39q-41 -4 -41 -39z" />
<glyph unicode="a" horiz-adv-x="1972" d="M53 250q0 45 16.5 83t45 65.5t66.5 44t81 16.5q51 0 92 -23l308 336q-53 43 -54 117q0 61 44 106t108 45q43 0 84 -24l289 364q-20 27 -21 58q0 41 28.5 68.5t67.5 27.5q41 0 70 -27.5t29 -68.5q0 -20 -9.5 -40t-23.5 -34l104 -211q12 4 27 4q51 0 87 -36t36 -87 q0 -68 -53 -104l251 -570h13q74 0 127 -51t53 -127q0 -37 -14.5 -70.5t-39 -58t-57 -39t-69.5 -14.5t-70 14.5t-57.5 39t-38.5 58t-14 70.5q0 43 18 80t51 62l-196 587q-8 -2 -14.5 -3t-12.5 -1q-37 0 -66.5 18.5t-44.5 49.5l-383 -111q-8 -53 -51 -91t-100 -38 q-29 0 -55 10l-281 -366q47 -57 47 -129q0 -43 -16.5 -80t-45 -65.5t-66.5 -45t-81 -16.5t-81 16.5t-66.5 45t-45 65.5t-16.5 80zM133 342q0 -23 16.5 -39t38.5 -16q25 0 40.5 16t15.5 39t-15.5 39t-40.5 16q-23 0 -39 -16t-16 -39zM668 956q0 -18 11 -30.5t28 -12.5 q16 0 28.5 12.5t12.5 30.5q0 16 -12.5 27.5t-28.5 11.5q-39 0 -39 -39zM883 981q14 -23 24 -49l375 78l-2 24q0 33 16.5 60.5t40.5 44.5l-86 211q-10 -6 -20 -7.5t-23 -1.5q-29 0 -55 17zM1149 1481q0 -27 27 -27t26 27q1 24 -26 24t-27 -24zM1327 1087q0 -14 10.5 -23 t24.5 -9q12 0 21.5 9t9.5 23t-9.5 24.5t-21.5 10.5q-14 0 -24.5 -10t-10.5 -25zM1626 260q0 -20 14.5 -33.5t34.5 -13.5t33.5 13.5t13.5 33.5t-13.5 34.5t-33.5 14.5t-34.5 -14t-14.5 -35z" />
<glyph unicode="b" horiz-adv-x="1409" d="M53 213q0 39 15.5 74t40 62.5t58.5 44t71 18.5l147 755q-51 16 -84 62.5t-33 101.5q0 72 50.5 122t121.5 50q35 0 67 -13t55.5 -36.5t36.5 -54.5t13 -68v-8q0 -12 -2 -22.5t-4 -18.5l469 -221q16 41 53 66.5t80 25.5q61 0 104.5 -45t43.5 -102q0 -61 -43 -104.5 t-105 -43.5q-18 0 -35.5 6t-33.5 13l-355 -175q0 -8 1 -15t1 -13q0 -25 -8 -43l344 -387q16 8 41 8q39 0 66.5 -26.5t27.5 -67.5q0 -37 -27.5 -64.5t-66.5 -27.5q-29 0 -50 15t-34 40l-645 6q-25 -51 -74 -82t-106 -31q-84 0 -142.5 56.5t-58.5 142.5zM129 301 q0 -20 16.5 -36.5t36.5 -16.5q23 0 39.5 16.5t16.5 36.5q0 23 -16.5 38t-39.5 15q-20 0 -36.5 -15t-16.5 -38zM334 1407q0 -18 13 -31.5t32 -13.5q18 0 31.5 13.5t13.5 31.5q0 20 -13.5 33.5t-31.5 13.5t-31.5 -13.5t-13.5 -33.5zM344 391q47 -25 77 -71t32 -101l618 -51 q4 27 16 45l-360 356q-29 -16 -59 -16q-49 0 -85 36t-36 85t35.5 84t85.5 35q25 0 48 -11.5t40 -27.5l329 174q-23 35 -22 78l-2 1t-16.5 6t-47 16t-92 30.5t-150.5 50.5t-225 74q-16 -12 -37.5 -17.5t-43.5 -7.5zM594 725q0 -12 9 -22.5t22 -10.5q12 0 21 10.5t9 22.5 t-9 22.5t-21 10.5t-21.5 -10.5t-9.5 -22.5zM1106 201q0 -25 24 -25q25 0 25 25q0 24 -25 24t-24 -24zM1118 1069q0 -39 41 -39q37 0 37 39t-37 39q-41 0 -41 -39z" />
<glyph unicode="c" horiz-adv-x="1333" d="M53 754q0 59 41 100t101 41q49 0 86 -31l467 430q-6 18 -12.5 37t-6.5 39q0 33 13.5 63.5t36 52t52 35t62.5 13.5q66 0 114 -48t48 -116t-48.5 -115t-113.5 -47q-33 0 -72 17l-497 -414q12 -29 12 -57q0 -31 -14.5 -59.5t-38.5 -47.5l188 -397q18 6 43 6q43 0 73.5 -24.5 t43.5 -63.5l454 61q2 39 30 67t69 28q39 0 67.5 -29t28.5 -70q0 -39 -28.5 -68.5t-67.5 -29.5q-33 0 -58.5 19.5t-35.5 48.5l-459 -82q-8 -41 -41 -67t-76 -26q-49 0 -84 35t-35 84q0 53 41 88l-217 389q-16 -4 -24 -4q-59 0 -100.5 42t-41.5 100zM106 815q0 -14 10.5 -25.5 t28.5 -11.5q14 0 25.5 11.5t11.5 25.5q0 16 -11.5 27.5t-25.5 11.5q-39 0 -39 -39zM440 190q0 -14 9.5 -23t21.5 -9q33 0 33 32q0 12 -9.5 21.5t-23.5 9.5q-12 0 -21.5 -9t-9.5 -22zM791 1442q0 -18 13 -30.5t30 -12.5q18 0 31.5 12t13.5 31q0 18 -13.5 30.5t-31.5 12.5 q-16 0 -29.5 -12.5t-13.5 -30.5zM1122 268q0 -12 8.5 -18t16.5 -6q29 0 29 24q0 25 -29 25q-8 0 -16.5 -6t-8.5 -19z" />
<glyph unicode="d" horiz-adv-x="1208" d="M53 1343q0 68 50 117t118 49q66 0 113 -43t55 -104l414 -184q27 55 92 55q41 0 69.5 -28.5t28.5 -69.5q0 -31 -15 -55.5t-40 -37.5l86 -340h8q51 0 87 -35.5t36 -86.5t-36 -87t-87 -36q-59 0 -96 45l-461 -314q2 -10 3 -19t1 -19q0 -59 -42 -102.5t-101 -43.5t-103.5 43 t-44.5 103q0 59 41 100t97 45l-125 883q-61 8 -104.5 54t-43.5 111zM119 1417q0 -18 12 -31.5t31 -13.5q20 0 32.5 13.5t12.5 31.5t-12.5 31.5t-32.5 13.5q-18 0 -30.5 -13t-12.5 -32zM244 213q0 -16 12 -26.5t29 -10.5q14 0 25.5 10.5t11.5 26.5q0 18 -11.5 28.5 t-25.5 10.5q-16 0 -28.5 -10.5t-12.5 -28.5zM311 1202l70 -915q31 -8 59 -37l475 289q-8 16 -8 41q0 35 18.5 64.5t49.5 43.5l-76 344q-45 0 -75.5 30t-30.5 73q0 6 2 8l-418 137q-23 -51 -66 -78zM831 1178q0 -27 27 -27t27 27q0 26 -27 26t-27 -26zM956 633 q0 -12 9.5 -22.5t21.5 -10.5q14 0 24.5 10.5t10.5 22.5q0 14 -10.5 23.5t-24.5 9.5q-12 0 -21.5 -9.5t-9.5 -23.5z" />
<glyph unicode="e" horiz-adv-x="1607" d="M53 1346q0 35 13.5 65.5t37 54t53 37t64.5 13.5q68 0 116 -46.5t52 -111.5l586 -174q8 20 27.5 33.5t46.5 13.5q31 0 54 -23.5t23 -54.5q0 -33 -23.5 -56.5t-53.5 -23.5q-35 0 -57.5 23.5t-22.5 56.5q-55 12 -113.5 23.5t-128.5 26t-156 31.5t-198 42q-14 -35 -47 -62 l209 -915q23 0 45 -6l118 399q-36 24 -36 73q0 44 29.5 74.5t70.5 30.5t71.5 -30.5t30.5 -71.5t-30.5 -70.5t-71.5 -29.5h-8l-142 -392q25 -16 47 -49l654 176q-2 10 -3 18.5t-1 18.5q0 51 35.5 87t87.5 36q51 0 86.5 -35.5t35.5 -87.5q0 -49 -35.5 -86t-86.5 -37 q-55 0 -95 43l-659 -206q0 -59 -42 -101.5t-104 -42.5q-59 0 -102 42t-43 104q0 45 26.5 81.5t67.5 53.5l-262 887q-33 0 -62.5 13t-53 36.5t-37 53.5t-13.5 65zM117 1419q0 -18 14 -31.5t33 -13.5q18 0 30.5 13.5t12.5 31.5t-12.5 31.5t-30.5 13.5t-32.5 -13t-14.5 -32z M442 219q0 -39 39 -39t39 39q0 37 -39 37t-39 -37zM698 813q0 -27 29 -27q27 0 27 27q0 29 -27 29q-29 0 -29 -29zM999 1188q0 -18 21 -19q20 0 20 19q0 20 -20 20t-21 -20zM1356 496q0 -33 33 -33q12 0 22 9t10 24q0 12 -10 21t-22 9q-14 0 -23.5 -9t-9.5 -21z" />
<glyph unicode="f" horiz-adv-x="1361" d="M53 1368q0 63 44 107.5t108 44.5q53 0 95 -35t52 -86l799 -56q8 25 29.5 40.5t48.5 15.5q35 0 57.5 -24.5t22.5 -55.5q0 -37 -22.5 -59.5t-57.5 -22.5q-31 0 -52.5 18.5t-29.5 44.5h-799q-16 -35 -49 -49l109 -356q6 4 20 4q51 0 85 -23.5t46 -60.5l416 90 q8 35 35.5 58.5t66.5 23.5q43 0 74 -30.5t31 -73.5t-31 -74t-74 -31q-33 0 -58.5 17.5t-37.5 44.5l-414 -68q0 -35 -16 -63.5t-43 -44.5l147 -295q10 2 19.5 3t19.5 1q37 0 69 -13.5t55.5 -37t36.5 -55t13 -66.5q0 -37 -13 -69t-36.5 -55.5t-55.5 -37.5t-69 -14t-68.5 14 t-55 37.5t-37 55.5t-13.5 69q0 35 14.5 66.5t38.5 56.5l-112 323q-12 -4 -21 -4q-53 0 -91 38t-38 91q0 31 14.5 57.5t36.5 42.5l-143 347l-14 -2q-61 0 -106.5 45t-45.5 106zM111 1436q0 -41 41 -41q39 0 38 41q1 39 -38 39q-41 0 -41 -39zM360 827q0 -14 10.5 -24 t24.5 -10q12 0 22.5 10t10.5 24t-10.5 24.5t-22.5 10.5q-14 0 -24.5 -10t-10.5 -25zM588 276q0 -20 12 -33.5t33 -13.5q20 0 33.5 13.5t13.5 33.5q0 18 -13.5 33t-33.5 15t-32.5 -14.5t-12.5 -33.5zM1040 901q27 0 27 27q0 28 -27 28q-28 0 -28 -26q0 -29 28 -29zM1178 1354 q0 -23 22 -23q20 0 21 23q-1 20 -21 20q-23 0 -22 -20z" />
<glyph unicode="g" horiz-adv-x="1347" d="M53 989q0 55 40 94t95 39t97 -41l493 275q0 6 -1 12t-1 12q0 66 45 111t111 45q61 0 107 -45t46 -111q0 -63 -46 -108t-107 -45q-57 0 -96 33l-523 -228q8 -14 9 -43q0 -61 -46 -100l158 -639q41 0 67.5 -18.5t41.5 -45.5l567 33q0 4 3 21.5t9 27.5l-311 297 q-16 -12 -39 -12q-31 0 -51.5 20.5t-20.5 51.5t20.5 52t51.5 21t52.5 -21.5t21.5 -51.5q0 -16 -10 -33l331 -283q8 2 16.5 4t18.5 2q37 0 64.5 -26.5t27.5 -65.5t-27.5 -65.5t-64.5 -26.5q-53 0 -78 41l-573 -68q-12 -35 -42 -58t-69 -23q-47 0 -78.5 33.5t-31.5 78.5 q0 31 14 57.5t41 40.5l-190 623q-59 0 -100.5 39t-41.5 94zM106 1049q0 -16 10.5 -26.5t22.5 -10.5q37 0 37 37q0 14 -10.5 24t-26.5 10q-12 0 -22.5 -10t-10.5 -24zM371 186q0 -12 9 -21t21 -9t20.5 9t8.5 21q0 29 -29 29q-12 0 -21 -8t-9 -21zM729 657q0 -20 19 -20 q18 0 18 20q0 19 -18 19t-19 -19zM834 1448q0 -16 12 -28.5t31 -12.5q16 0 28.5 12.5t12.5 28.5q0 18 -12.5 30.5t-28.5 12.5q-18 0 -30.5 -12.5t-12.5 -30.5zM1152 246q7 -8 17 -8t17.5 8t7.5 16q0 27 -25 27q-24 0 -24 -25q0 -10 7 -18z" />
<glyph unicode="h" horiz-adv-x="1540" d="M53 870q0 59 41 99.5t99 40.5q10 0 19 -1t19 -3l189 294q-29 14 -47.5 43t-18.5 62q0 49 34 84t83 35t83 -35t34 -84q0 -47 -34 -82t-83 -35l-16 2l-168 -317q29 -31 39 -64l968 -39q10 59 64 76l-133 416q-35 0 -57.5 21.5t-22.5 52.5t22.5 52t53.5 21t52 -21.5 t21 -51.5q0 -41 -37 -64l150 -422q35 -6 56.5 -31.5t21.5 -60.5q0 -39 -25.5 -65.5t-62.5 -30.5l-47 -375q35 -16 55 -49t20 -74q0 -57 -39.5 -97t-97.5 -40q-57 0 -98 40t-41 97t39 96t94 43l86 361q-57 14 -72 72h-970q-14 -59 -70 -88l143 -424h11q66 0 111.5 -46.5 t45.5 -113.5q0 -68 -46 -114t-111 -46q-68 0 -114 46t-46 114q0 88 74 135l-105 436q-8 -2 -15 -2h-11q-57 0 -98.5 41t-41.5 96zM106 932q0 -14 10.5 -25.5t26.5 -11.5t27.5 11.5t11.5 25.5q0 37 -39 37q-37 0 -37 -37zM311 233q0 -16 12.5 -29.5t28.5 -13.5t28.5 13.5 t12.5 29.5t-12.5 28.5t-28.5 12.5t-28.5 -12t-12.5 -29zM397 1458q0 -12 9.5 -21.5t21.5 -9.5q14 0 23.5 9.5t9.5 21.5t-9.5 21.5t-23.5 9.5q-12 0 -21.5 -9.5t-9.5 -21.5zM1174 1470q0 -23 20 -22q20 0 20 22q0 19 -20 19t-20 -19zM1202 326q0 -14 10.5 -25.5t26.5 -11.5 t26.5 11t10.5 26q0 36 -37 36t-37 -36zM1331 899q0 -25 25 -25t24 25q1 27 -24 27t-25 -27z" />
<glyph unicode="i" horiz-adv-x="731" d="M53 1065q0 68 49.5 117t116.5 49q68 0 117 -49t49 -117q0 -41 -17.5 -74t-43.5 -53l239 -723q4 0 8 1t9 1q39 0 68.5 -29.5t29.5 -68.5q0 -41 -30 -70t-68 -29q-41 0 -70 29t-29 70q0 25 11.5 45t27.5 35l-297 702q-70 0 -120 47t-50 117zM117 1139q0 -18 13 -31.5 t32 -13.5q16 0 29.5 13t13.5 32q0 16 -13.5 29.5t-29.5 13.5q-18 0 -31.5 -13.5t-13.5 -29.5zM123 1456q0 31 23.5 54.5t54.5 23.5t53 -23.5t22 -54.5q0 -33 -22.5 -54.5t-52.5 -21.5q-31 0 -54.5 21.5t-23.5 54.5zM152 1491q0 -8 6 -15.5t14 -7.5q10 0 16.5 7.5t6.5 15.5 q0 18 -23 18q-20 0 -20 -18zM520 137q0 -22 27 -22h2q8 0 15 8t7 20q-2 8 -9 15.5t-19 7.5q-23 -4 -23 -29z" />
<glyph unicode="j" horiz-adv-x="1140" d="M53 -70q0 49 35 83t82 34q45 0 78 -28.5t39 -71.5l362 -15q12 45 49 69t78 24l193 815q-18 10 -30.5 28.5t-12.5 40.5q0 35 23.5 58.5t56.5 23.5q35 0 57 -23.5t22 -58.5q0 -33 -21.5 -55.5t-53.5 -24.5l-160 -825q27 -20 44 -49t17 -64q0 -57 -40 -96t-95 -39 q-51 0 -89 32t-44 81l-356 41q-8 -43 -41 -69.5t-76 -26.5q-47 0 -82 33.5t-35 82.5zM98 -18q0 -12 9.5 -21.5t23.5 -9.5q12 0 21.5 9t9.5 22q0 14 -9.5 22t-21.5 8q-33 0 -33 -30zM692 -51q0 -14 10.5 -24.5t26.5 -10.5q14 0 24.5 10t10.5 25q0 16 -10.5 26.5t-24.5 10.5 q-37 0 -37 -37zM889 1204q0 27 18 45.5t43 18.5q27 0 45.5 -18.5t18.5 -45.5t-18.5 -45t-45.5 -18q-25 0 -43 18.5t-18 44.5zM913 1233q0 -18 17 -19q16 0 16 19q0 16 -16 16t-17 -16zM956 944q0 -6 6.5 -12t14.5 -6q23 0 22 18q1 25 -22 25q-20 0 -21 -25z" />
<glyph unicode="k" horiz-adv-x="1396" d="M53 92q0 31 22.5 52.5t53.5 21.5h8l119 483q-31 16 -49.5 48t-18.5 69q0 49 27 85t70 48l-29 365q-41 0 -69.5 27.5t-28.5 68.5q0 39 27.5 66.5t68.5 27.5q39 0 66.5 -27.5t27.5 -66.5q0 -61 -55 -88l55 -369q47 -10 74 -39l612 457q-10 27 -10 53q0 68 47 114t113 46 q68 0 113.5 -46t45.5 -114q0 -66 -46 -113t-113 -47q-47 0 -88 29l-641 -428q10 -25 10 -49q0 -35 -21 -68l293 -356q27 18 64 18q49 0 83 -33.5t34 -82.5t-34 -83t-83 -34t-83 34t-34 83q0 43 27 75l-320 328q-29 -18 -65 -18l-162 -471q39 -20 39 -66q0 -31 -21.5 -52.5 t-52.5 -21.5t-53.5 21.5t-22.5 52.5zM82 125q0 -8 7 -14.5t13 -6.5q18 0 19 21q-1 20 -19 20q-6 0 -13 -6t-7 -14zM219 1376q27 0 27 25q0 26 -27 26q-24 0 -24 -24q0 -27 24 -27zM240 827q0 -14 11 -25t25 -11q16 0 26.5 11t10.5 25q0 37 -37 37q-14 0 -25 -10t-11 -27z M729 295q0 -12 9.5 -22.5t21.5 -10.5t21.5 10.5t9.5 22.5t-9.5 21.5t-21.5 9.5t-21.5 -9.5t-9.5 -21.5zM1085 1446q0 -18 12.5 -30.5t30.5 -12.5q16 0 29.5 12t13.5 31q0 16 -13.5 28.5t-29.5 12.5q-18 0 -30.5 -12.5t-12.5 -28.5z" />
<glyph unicode="l" horiz-adv-x="1349" d="M53 1415q0 39 29 67.5t70 28.5t69.5 -28.5t28.5 -67.5q0 -29 -15.5 -51.5t-37.5 -34.5l231 -979q55 0 96 -30.5t58 -79.5l436 16q6 51 46 86t91 35q59 0 100 -41t41 -98q0 -59 -41 -100.5t-100 -41.5q-51 0 -89 33t-48 82l-428 -47q-8 -59 -54.5 -98t-107.5 -39 q-68 0 -114 47t-46 114q0 43 19.5 78t52.5 58l-193 995q-39 0 -66.5 27.5t-27.5 68.5zM186 1432q27 0 27 26q0 27 -27 27q-26 0 -26 -25q0 -29 26 -28zM442 260q0 -18 13.5 -30.5t31.5 -12.5q16 0 29.5 12.5t13.5 30.5q0 16 -13.5 29.5t-29.5 13.5q-18 0 -31.5 -13.5 t-13.5 -29.5zM1167 299q0 -37 39 -37q14 0 25.5 10.5t11.5 26.5t-11.5 26.5t-25.5 10.5q-39 0 -39 -37z" />
<glyph unicode="m" horiz-adv-x="1976" d="M53 225q0 47 17.5 88t48.5 71t72 47.5t88 17.5q14 0 24 -3l359 695q-45 27 -73 71.5t-28 100.5q0 39 15.5 73.5t41 60.5t60.5 41t76 15q39 0 74.5 -15t61 -41t41 -60.5t15.5 -73.5q0 -59 -33 -111l232 -348q10 2 19.5 3t19.5 1q27 0 61 -12l324 356q-35 41 -35 92 q0 53 40 93t93 40q55 0 95 -38.5t40 -94.5q0 -37 -15 -64.5t-42 -45.5l80 -781q41 0 69.5 -30.5t28.5 -71.5q0 -45 -29.5 -73.5t-72.5 -28.5q-45 0 -75 28.5t-30 73.5q0 35 18.5 60.5t49.5 37.5l-127 760q-10 2 -18.5 4t-16.5 4l-307 -376q33 -39 33 -95q0 -70 -48.5 -117 t-115.5 -47q-66 0 -114 47.5t-48 116.5q0 57 37 105l-207 346q-23 -12 -47.5 -20.5t-50.5 -8.5q-12 0 -15 2l-315 -727q35 -31 56.5 -75t21.5 -93q0 -47 -17.5 -87t-48 -70.5t-71.5 -48t-86 -17.5q-47 0 -88 17.5t-72 48t-48.5 70.5t-17.5 87zM139 324q0 -25 17.5 -43.5 t44.5 -18.5q25 0 41 18.5t16 43.5t-16 42t-41 17q-27 0 -44.5 -17.5t-17.5 -41.5zM635 1397q0 -51 51 -51q20 0 35.5 14t15.5 37q0 20 -15.5 35.5t-35.5 15.5q-23 0 -37 -15.5t-14 -35.5zM1083 766q0 -16 13.5 -29.5t29.5 -13.5t29.5 12.5t13.5 30.5t-12.5 31.5t-28.5 13.5 q-18 0 -31.5 -13.5t-13.5 -31.5zM1585 1352q0 -14 10.5 -24.5t24.5 -10.5q16 0 26.5 10t10.5 25q0 34 -37 34q-14 0 -24.5 -9t-10.5 -25zM1755 348q0 -12 8.5 -21.5t20.5 -9.5t19 9.5t7 23.5q0 23 -26 23q-29 0 -29 -25z" />
<glyph unicode="n" horiz-adv-x="1660" d="M53 188q0 70 47 120t115 54l317 889q-33 23 -53 56.5t-20 74.5q0 31 12 57.5t32.5 48t48.5 34t58 12.5q63 0 106.5 -46t43.5 -106q0 -63 -47 -110l370 -600q8 2 16.5 3t18.5 1h12l304 563q-35 31 -35 76t30.5 74.5t73.5 29.5t74 -29.5t31 -74.5q0 -43 -31 -74t-74 -31 q-20 0 -37 9l-276 -566q25 -16 40 -43.5t15 -60.5q0 -53 -37 -90t-90 -37t-90 37t-37 90q0 43 21 69l-342 627q-27 -14 -60 -14q-8 0 -13 1t-11 1l-275 -893q41 -23 65.5 -62.5t24.5 -89.5q0 -37 -14 -67.5t-37.5 -54t-55.5 -37t-67 -13.5q-72 0 -123 50.5t-51 121.5z M121 266q0 -20 12 -33.5t33 -13.5q18 0 32.5 13.5t14.5 33.5t-14.5 32.5t-32.5 12.5q-45 0 -45 -45zM516 1448q0 -16 11.5 -28.5t29.5 -12.5q16 0 27.5 12.5t11.5 28.5q0 41 -39 41q-41 0 -41 -41zM1038 606q0 -16 10.5 -25.5t24.5 -9.5q12 0 23.5 9.5t11.5 25.5 q0 12 -11.5 22.5t-23.5 10.5q-14 0 -24.5 -10.5t-10.5 -22.5zM1438 1362q0 -29 28 -29q29 0 29 29q0 27 -29 27t-28 -27z" />
<glyph unicode="o" horiz-adv-x="1552" d="M53 1255q0 68 49.5 116t116.5 48q53 0 95 -30.5t59 -77.5h714q8 35 46 65.5t92 30.5q59 0 99 -42t40 -99q0 -39 -19.5 -71t-50.5 -48l92 -916q45 0 78 -33.5t33 -80.5t-33.5 -80t-81.5 -33q-39 0 -67.5 21.5t-38.5 54.5l-666 61q-23 -49 -68.5 -80.5t-105.5 -31.5 q-39 0 -72.5 15t-59 41t-41 60.5t-15.5 73.5q0 94 74 150l-109 721q-68 4 -114 51t-46 114zM117 1325q0 -18 13 -30.5t32 -12.5q18 0 31.5 12.5t13.5 30.5t-13.5 31.5t-31.5 13.5t-31.5 -13.5t-13.5 -31.5zM281 1102l159 -692q74 -2 126 -49.5t61 -116.5l643 -109 q12 59 67 86l-137 907q-41 8 -72.5 38t-40.5 73l-708 -29q-12 -39 -38 -67.5t-60 -40.5zM319 303q0 -23 15.5 -37t36.5 -14q20 0 35.5 14.5t15.5 36.5q0 20 -15.5 35.5t-35.5 15.5t-36 -15t-16 -36zM1139 1327q0 -14 10 -25.5t27 -11.5q16 0 27 11.5t11 25.5q1 37 -38 37 q-37 0 -37 -37zM1313 166q0 -12 9 -20.5t21 -8.5q29 0 29 29q0 31 -29 31q-12 0 -21 -8.5t-9 -22.5z" />
<glyph unicode="p" horiz-adv-x="1282" d="M53 141q0 59 37 100.5t90 51.5l154 952q-35 16 -56.5 48t-21.5 73q0 55 37 93t94 38q53 0 92 -38t39 -91l494 -96q10 35 38.5 56.5t65.5 21.5q47 0 80 -32t33 -79q0 -45 -33 -78t-80 -33q-37 0 -63 21l-414 -242v-8q0 -39 -25.5 -64.5t-64.5 -25.5t-65.5 25.5t-26.5 64.5 t26.5 64.5t65.5 25.5q27 0 46 -12t32 -33l387 252l-8 31l-508 71q-14 -27 -41 -43t-60 -20l-114 -961q35 -20 55 -55t20 -78q0 -63 -44 -107t-107 -44q-61 0 -107.5 45t-46.5 106zM113 209q0 -16 12 -27.5t29 -11.5q16 0 28.5 11.5t12.5 27.5t-12.5 28.5t-28.5 12.5 t-28.5 -12.5t-12.5 -28.5zM305 1423q0 -12 10.5 -23t24.5 -11t24.5 11t10.5 23q0 16 -10.5 26.5t-24.5 10.5t-24.5 -10t-10.5 -27zM516 913q25 0 25 25t-25 25q-24 0 -24 -23q0 -27 24 -27zM1049 1288q0 -12 9 -21.5t21 -9.5t20.5 9.5t8.5 21.5t-8.5 21.5t-20.5 9.5 t-21 -9.5t-9 -21.5z" />
<glyph unicode="q" horiz-adv-x="1417" d="M53 125q0 57 40 98t100 43l167 912q-37 20 -60.5 57t-23.5 84q0 33 13.5 62.5t36 51t52 35t62.5 13.5q63 0 105.5 -39t54.5 -99l571 -202q6 35 32 57.5t65 22.5t67.5 -31t28.5 -68q0 -39 -21.5 -63.5t-54.5 -32.5l-293 -674q16 -10 26.5 -25.5t10.5 -39.5 q0 -27 -22.5 -51.5t-53.5 -24.5t-52 22.5t-21 53.5t19.5 52t47.5 23l264 680q-29 18 -36 43l-592 166q-16 -37 -50 -62.5t-77 -29.5l-207 -905q72 -35 84 -115h725q12 55 40.5 78t74.5 23q47 0 82.5 -35t35.5 -84t-35.5 -84t-82.5 -35t-79 28.5t-38 71.5l-742 -43 q-16 -33 -48.5 -54t-73.5 -21q-57 0 -99.5 42t-42.5 99zM121 176q0 -31 31 -31q33 0 32 31q0 12 -9 21.5t-23 9.5q-12 0 -21.5 -9.5t-9.5 -21.5zM367 1401q0 -35 36 -35q37 0 37 35q0 39 -37 39q-36 0 -36 -39zM905 305q0 -31 31 -31q33 0 33 31q0 12 -9.5 21.5t-23.5 9.5 t-22.5 -9.5t-8.5 -21.5zM1098 172q0 -31 30 -31q33 0 33 31q0 33 -33 33q-12 0 -21 -9.5t-9 -23.5zM1210 1161q0 -31 31 -31q33 0 33 31q0 33 -33 33q-31 0 -31 -33z" />
<glyph unicode="r" horiz-adv-x="1058" d="M53 123q0 47 28 82t71 47l34 1018q-41 8 -65.5 39.5t-24.5 74.5q0 49 34 83t83 34q45 0 79 -32.5t38 -77.5l483 -150q10 31 35.5 49.5t58.5 18.5q39 0 69 -29t30 -70t-30 -70.5t-69 -29.5t-65 25l-365 -181q4 -16 4 -24t-1 -13.5t-3 -11.5l328 -549q12 4 22 4 q27 0 44.5 -18t17.5 -43q0 -27 -17.5 -45t-44.5 -18q-25 0 -43 18t-18 45q0 31 20 45l-352 512q-16 -8 -35 -8q-33 0 -56.5 23.5t-23.5 58.5q0 33 24 57.5t56 24.5q20 0 36 -9.5t28 -21.5l350 197q-4 20 -4 32q-4 2 -19.5 6.5t-41.5 10.5q-47 10 -148.5 32.5t-288.5 65.5 q-27 -47 -86 -57l6 -1018q41 -12 67 -47t26 -80q0 -57 -40 -96t-96 -39q-55 0 -95 39t-40 96zM106 182q0 -14 10.5 -25.5t24.5 -11.5q16 0 25.5 11.5t9.5 25.5t-9.5 25.5t-25.5 11.5q-14 0 -24.5 -11t-10.5 -26zM139 1436q0 -12 9.5 -21.5t21.5 -9.5t21.5 9t9.5 22 q0 12 -9.5 21t-21.5 9t-21.5 -9t-9.5 -21zM350 965q0 -20 23 -21q20 0 20 21q0 22 -20 22q-23 0 -23 -22zM791 326q0 -16 14 -17q16 0 16 17q0 16 -16 16q-14 0 -14 -16zM868 1227h2q29 0 29 26q0 27 -29 27q-24 0 -24 -25q0 -28 22 -28z" />
<glyph unicode="s" horiz-adv-x="1173" d="M53 57q0 33 23.5 55.5t54.5 22.5q33 0 55 -22l508 340q-2 6 -4 15t-2 15q0 25 12 47l-456 494q-25 -12 -45 -12q-47 0 -80 33.5t-33 78.5q0 47 33 80t80 33q35 0 63.5 -20.5t40.5 -51.5l559 197q2 51 39 87t90 36t91 -38t38 -91t-38 -91t-91 -38q-61 0 -98 47l-584 -158 q-2 -14 -6 -25.5t-8 -21.5l442 -502q20 12 47 13q39 0 67 -28t28 -69q0 -39 -28 -66.5t-67 -27.5q-31 0 -57 19l-526 -318q8 -14 8 -33q0 -33 -22.5 -55t-55.5 -22q-31 0 -54.5 22.5t-23.5 54.5zM84 92q0 -20 18 -20q23 0 23 20q0 21 -23 21q-18 0 -18 -21zM129 1174 q0 -29 29 -29q12 0 21 8t9 21q0 12 -9 21t-21 9t-20.5 -9t-8.5 -21zM725 526q0 -26 23 -26h2q27 0 26 26q1 25 -26 25q-25 0 -25 -25zM911 1413q0 -14 10.5 -23.5t24.5 -9.5t24.5 9.5t10.5 23.5t-10.5 24.5t-24.5 10.5t-24.5 -10.5t-10.5 -24.5z" />
<glyph unicode="t" horiz-adv-x="1673" d="M53 999q0 57 42.5 99.5t101.5 42.5q35 0 65.5 -16.5t50.5 -43.5l441 115q0 20 9 45t24.5 44.5t38 32.5t51.5 13q39 0 68.5 -20.5t43.5 -50.5l422 110q0 68 27.5 94.5t77.5 26.5q43 0 73.5 -30.5t30.5 -74.5q0 -45 -30.5 -74.5t-73.5 -29.5q-55 0 -86 43l-431 -133 q-2 -29 -18 -55.5t-43 -40.5l-31 -946q63 -16 64 -84q0 -33 -25.5 -59.5t-60.5 -26.5t-60.5 26.5t-25.5 59.5t19.5 54t47.5 30l-30 935q-12 4 -28.5 11.5t-33.5 29.5l-434 -139q-4 -55 -45 -93t-98 -38q-59 0 -101.5 42t-42.5 101zM109 1061q0 -16 11 -26.5t25 -10.5 q39 0 39 37q0 39 -39 39q-14 0 -25 -10.5t-11 -28.5zM803 1262q0 -14 9 -23.5t22 -9.5q33 0 32 33q1 32 -32 32q-12 0 -21.5 -9t-9.5 -23zM831 102q0 -8 7.5 -15t15.5 -7q10 0 16.5 7t6.5 15q0 25 -23 25q-8 0 -15.5 -7t-7.5 -18zM1448 1432q0 -12 9 -19.5t20 -7.5 q29 0 28 27q1 28 -28 28q-10 0 -19.5 -8t-9.5 -20z" />
<glyph unicode="u" horiz-adv-x="1531" d="M53 1307q0 70 49 118t117 48t117 -48.5t49 -117.5q0 -49 -26.5 -87t-65.5 -61l168 -854q43 -8 74.5 -37.5t42.5 -70.5l296 -91q8 33 33 56.5t62 32.5l237 1065q-27 10 -44 34.5t-17 55.5q0 43 28.5 71.5t71.5 28.5q39 0 68.5 -28.5t29.5 -71.5t-30 -68l92 -694 q31 0 52.5 -22.5t21.5 -53.5t-22.5 -54.5t-55.5 -23.5q-31 0 -53.5 25.5t-22.5 52.5t11.5 42t29.5 26l-104 673q-20 -102 -41 -206.5t-44.5 -230.5t-52 -281.5t-65.5 -358.5q25 -18 39 -39.5t14 -60.5q0 -23 -10 -44.5t-27.5 -39t-39 -28.5t-44.5 -11q-47 0 -78.5 28.5 t-40.5 69.5l-303 53q-16 -37 -48 -60.5t-81 -23.5q-27 0 -52.5 12.5t-45.5 32t-33.5 45t-13.5 54.5q0 53 28.5 88t73.5 47l-211 848q-57 10 -95 56t-38 104zM117 1380q0 -18 13 -30.5t30 -12.5q18 0 31.5 12.5t13.5 30.5t-13.5 30.5t-31.5 12.5q-16 0 -29.5 -12t-13.5 -31z M350 225q0 -37 39 -37q14 0 26.5 10.5t12.5 26.5t-12.5 27.5t-26.5 11.5q-39 0 -39 -39zM915 129q0 -14 10.5 -23.5t22.5 -9.5t22.5 9.5t10.5 23.5q0 12 -10.5 22.5t-22.5 10.5t-22.5 -10.5t-10.5 -22.5zM1184 1395q0 -27 24 -27q27 0 27 27q0 26 -27 26q-25 0 -24 -26z M1354 545q0 -18 20 -19q20 0 21 19q-1 20 -21 20t-20 -20z" />
<glyph unicode="v" horiz-adv-x="1220" d="M53 1360q0 29 12.5 55.5t32 46t46 31.5t57.5 12t57.5 -12t46 -31.5t31.5 -46t12 -55.5q0 -45 -24 -84l594 -1049q8 4 14 6.5t14 4.5l88 813q-35 10 -59.5 38.5t-24.5 67.5q0 45 32 76t77 31t75.5 -31t30.5 -76q0 -43 -27.5 -73.5t-70.5 -34.5l-49 -824q31 -16 52.5 -47 t21.5 -69q0 -53 -37 -90t-92 -37q-53 0 -90 36.5t-37 90.5q0 63 47 98l-641 1010q-10 -2 -20.5 -3.5t-20.5 -1.5q-59 0 -103.5 43t-44.5 105zM147 1384q16 0 28.5 11.5t12.5 27.5q0 18 -12.5 28.5t-28.5 10.5q-38 0 -38 -37q0 -41 38 -41zM885 166q0 -14 10 -23.5t25 -9.5 q12 0 22 9.5t10 23.5t-10 24.5t-22 10.5q-14 0 -24.5 -10.5t-10.5 -24.5zM991 1204q0 -28 27 -28h2q29 0 29 28q0 29 -29 29t-29 -29z" />
<glyph unicode="w" horiz-adv-x="1939" d="M53 854q0 61 23.5 116.5t65.5 96.5t96.5 64.5t115.5 23.5t115.5 -23.5t96.5 -64.5t65.5 -96.5t23.5 -116.5q0 -80 -37 -143l410 -369q35 39 84 51l-168 643q-31 0 -58.5 13.5t-49 36t-33.5 52t-12 60.5q0 66 48 113t115 47q66 0 114 -47t48 -113l559 -321q6 12 13.5 18 l17.5 14l-283 410q-8 -2 -18 -2q-41 0 -66.5 26.5t-25.5 65.5t25.5 65.5t66.5 26.5q37 0 64.5 -26.5t27.5 -65.5q0 -25 -18 -53l252 -434q14 8 41 8q47 0 79.5 -34t32.5 -81q0 -49 -32.5 -83t-79.5 -34q-49 0 -82 34t-33 83v14.5t2 16.5l-567 270q-23 -41 -66 -63l137 -650 h13q43 0 80.5 -16t65.5 -44t44 -65.5t16 -80.5t-16 -81t-44 -67t-65.5 -45t-80.5 -16t-81 16t-66 45t-44 67t-16 81q0 47 18 88l-467 321q-74 -51 -166 -51q-61 0 -115.5 23.5t-96.5 63.5t-65.5 94.5t-23.5 117.5zM121 893q0 -37 24.5 -62.5t61.5 -25.5t61.5 25.5t24.5 62.5 q0 35 -24.5 59.5t-61.5 24.5t-61.5 -24.5t-24.5 -59.5zM836 1239q0 -18 12 -30.5t29 -12.5q18 0 30.5 12.5t12.5 30.5q0 16 -12.5 27.5t-30.5 11.5q-16 0 -28.5 -11.5t-12.5 -27.5zM1018 182q0 -20 14.5 -34.5t34.5 -14.5q23 0 37 14.5t14 34.5t-14 34.5t-37 14.5 q-20 0 -34.5 -14t-14.5 -35zM1337 1427q0 -18 19 -18q16 0 16 18q0 17 -16 17q-18 0 -19 -17zM1694 784q0 -12 9 -21t21 -9t21.5 9t9.5 21t-9.5 21.5t-21.5 9.5t-21 -9t-9 -22z" />
<glyph unicode="x" horiz-adv-x="2033" d="M53 211q0 47 18.5 89t49.5 72.5t73 49t89 18.5q35 0 67.5 -11t61.5 -30l530 359q-27 39 -27 92q0 92 78 141l-112 187q-8 -2 -21 -2q-45 0 -75.5 31.5t-30.5 74.5t30.5 75t75.5 32t76 -32t31 -75q0 -51 -39 -82l92 -196q14 8 29.5 10t31.5 2q41 0 75 -17.5t56 -46.5 l504 365q-10 25 -10 47q0 57 40 97t97 40t97 -40t40 -97t-39.5 -97t-97.5 -40q-47 0 -84 30l-522 -344q12 -31 12 -63q0 -45 -20.5 -81t-52.5 -58l151 -226q31 14 72 15q39 0 74.5 -15.5t63.5 -42t43 -63.5t15 -78t-15 -77t-43 -62.5t-63.5 -42t-74.5 -15.5 q-86 0 -142.5 57.5t-56.5 139.5q0 92 64 145l-123 246q-31 -10 -60 -10q-68 0 -112 45l-498 -387q39 -57 39 -129q0 -47 -18.5 -88t-49 -72t-71.5 -49t-88 -18t-89 18t-73 49t-49.5 72t-18.5 88zM139 311q0 -25 18.5 -43t43.5 -18q27 0 44 18.5t17 42.5q0 25 -17 43.5 t-44 18.5q-25 0 -43.5 -18.5t-18.5 -43.5zM823 1300q29 0 29 29t-29 29q-28 0 -28 -27q0 -31 28 -31zM979 924q0 -20 13.5 -32.5t31.5 -12.5t30.5 12t12.5 33q0 16 -12.5 30.5t-30.5 14.5t-31.5 -14.5t-13.5 -30.5zM1276 389q0 -23 15.5 -38t35.5 -15q23 0 38 15.5t15 37.5 q0 20 -15 35.5t-38 15.5q-20 0 -35.5 -15t-15.5 -36zM1759 1423q0 -14 10.5 -25.5t26.5 -11.5q14 0 25.5 11.5t11.5 25.5q0 16 -11.5 26.5t-25.5 10.5q-37 0 -37 -37z" />
<glyph unicode="y" horiz-adv-x="989" d="M53 1356q0 59 42.5 101t101.5 42t101 -42t42 -101q0 -37 -14 -64l252 -348q27 18 63 19q25 0 43 -9l143 242q-25 20 -24 53q0 27 18.5 46.5t46.5 19.5q27 0 47.5 -19.5t20.5 -46.5q0 -29 -20.5 -47t-47.5 -18h-12l-131 -256q41 -37 41 -90q0 -47 -30.5 -81t-76.5 -40 l-137 -527q31 -10 50.5 -36.5t19.5 -59.5q0 -45 -31 -75.5t-76 -30.5q-43 0 -73.5 30.5t-30.5 75.5q0 43 30.5 73t73.5 30h13l102 524q-37 12 -60.5 44t-23.5 73q0 47 27 75l-287 314q-25 -12 -59 -13q-59 0 -101.5 42t-42.5 100zM109 1419q0 -39 38 -39q37 0 37 39 q0 37 -37 37q-39 0 -38 -37zM422 139q0 -28 25 -28h2q29 0 28 28q1 29 -28 29q-27 0 -27 -29zM563 893q0 -14 10.5 -24.5t24.5 -10.5q12 0 22.5 10.5t10.5 24.5q0 12 -10.5 22.5t-22.5 10.5q-14 0 -24.5 -10.5t-10.5 -22.5zM827 1278q0 -18 19 -18q6 0 12 5t6 13t-6 12 t-12 4q-18 0 -19 -16z" />
<glyph unicode="z" horiz-adv-x="1298" d="M53 1325q0 70 50 119t118 49q70 0 119 -49t49 -119l567 -170q12 47 52.5 78t89.5 31q59 0 103 -42t44 -102q0 -27 -12 -53.5t-32.5 -48t-46.5 -35.5t-52 -14q-18 0 -39 10l-657 -805l18 -37l430 88q-2 10 -2 27q0 43 29.5 72.5t68.5 29.5q43 0 73 -29.5t30 -72.5 q0 -41 -30 -70.5t-73 -29.5q-25 0 -46 12t-36 33l-442 -121q-10 -41 -43 -70t-78 -29q-49 0 -86 37t-37 88t37 87t86 36q37 0 68 -18l622 811q-37 35 -41 92l-587 131q-20 -39 -59.5 -61.5t-86.5 -22.5q-68 0 -118 48t-50 120zM117 1399q0 -18 14 -31.5t31 -13.5 q18 0 31.5 13t13.5 32q0 18 -13.5 31.5t-31.5 13.5q-16 0 -30.5 -13.5t-14.5 -31.5zM229 156q0 -12 10.5 -22.5t22.5 -10.5q14 0 23.5 10t9.5 23q0 32 -33 32q-12 0 -22.5 -9t-10.5 -23zM915 270q29 0 29 27t-29 27q-26 0 -26 -25q0 -29 26 -29zM1008 1184q0 -39 41 -39 q37 0 36 39q1 39 -36 39q-41 -4 -41 -39z" />
<glyph unicode="&#x2000;" />
<glyph unicode="&#x2001;" horiz-adv-x="1536" />
<glyph unicode="&#x2002;" />
<glyph unicode="&#x2003;" horiz-adv-x="1536" />
<glyph unicode="&#x2004;" horiz-adv-x="512" />
<glyph unicode="&#x2005;" horiz-adv-x="384" />
<glyph unicode="&#x2006;" horiz-adv-x="256" />
<glyph unicode="&#x2007;" horiz-adv-x="256" />
<glyph unicode="&#x2008;" horiz-adv-x="192" />
<glyph unicode="&#x2009;" horiz-adv-x="307" />
<glyph unicode="&#x200a;" horiz-adv-x="85" />
<glyph unicode="&#x202f;" horiz-adv-x="307" />
<glyph unicode="&#x205f;" horiz-adv-x="384" />
<glyph unicode="&#x25fc;" horiz-adv-x="1505" d="M0 0v1505h1505v-1505h-1505z" />
</font>
</defs>
</svg>
